<?xml version="1.0" standalone="no"?>
<!DOCTYPE svg PUBLIC "-//W3C//DTD SVG 1.1//EN" "http://www.w3.org/Graphics/SVG/1.1/DTD/svg11.dtd">
<svg version="1.1" width="1200" height="310" onload="init(evt)" viewBox="0 0 1200 310" xmlns="http://www.w3.org/2000/svg" xmlns:xlink="http://www.w3.org/1999/xlink">
<!-- Flame graph stack visualization. See https://github.com/brendangregg/FlameGraph for latest version, and http://www.brendangregg.com/flamegraphs.html for examples. -->
<!-- NOTES:  -->
<defs>
	<linearGradient id="background" y1="0" y2="1" x1="0" x2="0" >
		<stop stop-color="#eeeeee" offset="5%" />
		<stop stop-color="#eeeeb0" offset="95%" />
	</linearGradient>
</defs>
<style type="text/css">
	text { font-family:Verdana; font-size:12px; fill:rgb(0,0,0); }
	#search, #ignorecase { opacity:0.1; cursor:pointer; }
	#search:hover, #search.show, #ignorecase:hover, #ignorecase.show { opacity:1; }
	#subtitle { text-anchor:middle; font-color:rgb(160,160,160); }
	#title { text-anchor:middle; font-size:17px}
	#unzoom { cursor:pointer; }
	#frames > *:hover { stroke:black; stroke-width:0.5; cursor:pointer; }
	.hide { display:none; }
	.parent { opacity:0.5; }
</style>
<script type="text/ecmascript">
<![CDATA[
	"use strict";
	var details, searchbtn, unzoombtn, matchedtxt, svg, searching, currentSearchTerm, ignorecase, ignorecaseBtn;
	function init(evt) {
		details = document.getElementById("details").firstChild;
		searchbtn = document.getElementById("search");
		ignorecaseBtn = document.getElementById("ignorecase");
		unzoombtn = document.getElementById("unzoom");
		matchedtxt = document.getElementById("matched");
		svg = document.getElementsByTagName("svg")[0];
		searching = 0;
		currentSearchTerm = null;

		// use GET parameters to restore a flamegraphs state.
		var params = get_params();
		if (params.x && params.y)
			zoom(find_group(document.querySelector('[x="' + params.x + '"][y="' + params.y + '"]')));
                if (params.s) search(params.s);
	}

	// event listeners
	window.addEventListener("click", function(e) {
		var target = find_group(e.target);
		if (target) {
			if (target.nodeName == "a") {
				if (e.ctrlKey === false) return;
				e.preventDefault();
			}
			if (target.classList.contains("parent")) unzoom(true);
			zoom(target);
			if (!document.querySelector('.parent')) {
				// we have basically done a clearzoom so clear the url
				var params = get_params();
				if (params.x) delete params.x;
				if (params.y) delete params.y;
				history.replaceState(null, null, parse_params(params));
				unzoombtn.classList.add("hide");
				return;
			}

			// set parameters for zoom state
			var el = target.querySelector("rect");
			if (el && el.attributes && el.attributes.y && el.attributes._orig_x) {
				var params = get_params()
				params.x = el.attributes._orig_x.value;
				params.y = el.attributes.y.value;
				history.replaceState(null, null, parse_params(params));
			}
		}
		else if (e.target.id == "unzoom") clearzoom();
		else if (e.target.id == "search") search_prompt();
		else if (e.target.id == "ignorecase") toggle_ignorecase();
	}, false)

	// mouse-over for info
	// show
	window.addEventListener("mouseover", function(e) {
		var target = find_group(e.target);
		if (target) details.nodeValue = "Function: " + g_to_text(target);
	}, false)

	// clear
	window.addEventListener("mouseout", function(e) {
		var target = find_group(e.target);
		if (target) details.nodeValue = ' ';
	}, false)

	// ctrl-F for search
	// ctrl-I to toggle case-sensitive search
	window.addEventListener("keydown",function (e) {
		if (e.keyCode === 114 || (e.ctrlKey && e.keyCode === 70)) {
			e.preventDefault();
			search_prompt();
		}
		else if (e.ctrlKey && e.keyCode === 73) {
			e.preventDefault();
			toggle_ignorecase();
		}
	}, false)

	// functions
	function get_params() {
		var params = {};
		var paramsarr = window.location.search.substr(1).split('&');
		for (var i = 0; i < paramsarr.length; ++i) {
			var tmp = paramsarr[i].split("=");
			if (!tmp[0] || !tmp[1]) continue;
			params[tmp[0]]  = decodeURIComponent(tmp[1]);
		}
		return params;
	}
	function parse_params(params) {
		var uri = "?";
		for (var key in params) {
			uri += key + '=' + encodeURIComponent(params[key]) + '&';
		}
		if (uri.slice(-1) == "&")
			uri = uri.substring(0, uri.length - 1);
		if (uri == '?')
			uri = window.location.href.split('?')[0];
		return uri;
	}
	function find_child(node, selector) {
		var children = node.querySelectorAll(selector);
		if (children.length) return children[0];
	}
	function find_group(node) {
		var parent = node.parentElement;
		if (!parent) return;
		if (parent.id == "frames") return node;
		return find_group(parent);
	}
	function orig_save(e, attr, val) {
		if (e.attributes["_orig_" + attr] != undefined) return;
		if (e.attributes[attr] == undefined) return;
		if (val == undefined) val = e.attributes[attr].value;
		e.setAttribute("_orig_" + attr, val);
	}
	function orig_load(e, attr) {
		if (e.attributes["_orig_"+attr] == undefined) return;
		e.attributes[attr].value = e.attributes["_orig_" + attr].value;
		e.removeAttribute("_orig_"+attr);
	}
	function g_to_text(e) {
		var text = find_child(e, "title").firstChild.nodeValue;
		return (text)
	}
	function g_to_func(e) {
		var func = g_to_text(e);
		// if there's any manipulation we want to do to the function
		// name before it's searched, do it here before returning.
		return (func);
	}
	function update_text(e) {
		var r = find_child(e, "rect");
		var t = find_child(e, "text");
		var w = parseFloat(r.attributes.width.value) -3;
		var txt = find_child(e, "title").textContent.replace(/\([^(]*\)$/,"");
		t.attributes.x.value = parseFloat(r.attributes.x.value) + 3;

		// Smaller than this size won't fit anything
		if (w < 2 * 12 * 0.59) {
			t.textContent = "";
			return;
		}

		t.textContent = txt;
		var sl = t.getSubStringLength(0, txt.length);
		// check if only whitespace or if we can fit the entire string into width w
		if (/^ *$/.test(txt) || sl < w)
			return;

		// this isn't perfect, but gives a good starting point
		// and avoids calling getSubStringLength too often
		var start = Math.floor((w/sl) * txt.length);
		for (var x = start; x > 0; x = x-2) {
			if (t.getSubStringLength(0, x + 2) <= w) {
				t.textContent = txt.substring(0, x) + "..";
				return;
			}
		}
		t.textContent = "";
	}

	// zoom
	function zoom_reset(e) {
		if (e.attributes != undefined) {
			orig_load(e, "x");
			orig_load(e, "width");
		}
		if (e.childNodes == undefined) return;
		for (var i = 0, c = e.childNodes; i < c.length; i++) {
			zoom_reset(c[i]);
		}
	}
	function zoom_child(e, x, ratio) {
		if (e.attributes != undefined) {
			if (e.attributes.x != undefined) {
				orig_save(e, "x");
				e.attributes.x.value = (parseFloat(e.attributes.x.value) - x - 10) * ratio + 10;
				if (e.tagName == "text")
					e.attributes.x.value = find_child(e.parentNode, "rect[x]").attributes.x.value + 3;
			}
			if (e.attributes.width != undefined) {
				orig_save(e, "width");
				e.attributes.width.value = parseFloat(e.attributes.width.value) * ratio;
			}
		}

		if (e.childNodes == undefined) return;
		for (var i = 0, c = e.childNodes; i < c.length; i++) {
			zoom_child(c[i], x - 10, ratio);
		}
	}
	function zoom_parent(e) {
		if (e.attributes) {
			if (e.attributes.x != undefined) {
				orig_save(e, "x");
				e.attributes.x.value = 10;
			}
			if (e.attributes.width != undefined) {
				orig_save(e, "width");
				e.attributes.width.value = parseInt(svg.width.baseVal.value) - (10 * 2);
			}
		}
		if (e.childNodes == undefined) return;
		for (var i = 0, c = e.childNodes; i < c.length; i++) {
			zoom_parent(c[i]);
		}
	}
	function zoom(node) {
		var attr = find_child(node, "rect").attributes;
		var width = parseFloat(attr.width.value);
		var xmin = parseFloat(attr.x.value);
		var xmax = parseFloat(xmin + width);
		var ymin = parseFloat(attr.y.value);
		var ratio = (svg.width.baseVal.value - 2 * 10) / width;

		// XXX: Workaround for JavaScript float issues (fix me)
		var fudge = 0.0001;

		unzoombtn.classList.remove("hide");

		var el = document.getElementById("frames").children;
		for (var i = 0; i < el.length; i++) {
			var e = el[i];
			var a = find_child(e, "rect").attributes;
			var ex = parseFloat(a.x.value);
			var ew = parseFloat(a.width.value);
			var upstack;
			// Is it an ancestor
			if (0 == 0) {
				upstack = parseFloat(a.y.value) > ymin;
			} else {
				upstack = parseFloat(a.y.value) < ymin;
			}
			if (upstack) {
				// Direct ancestor
				if (ex <= xmin && (ex+ew+fudge) >= xmax) {
					e.classList.add("parent");
					zoom_parent(e);
					update_text(e);
				}
				// not in current path
				else
					e.classList.add("hide");
			}
			// Children maybe
			else {
				// no common path
				if (ex < xmin || ex + fudge >= xmax) {
					e.classList.add("hide");
				}
				else {
					zoom_child(e, xmin, ratio);
					update_text(e);
				}
			}
		}
		search();
	}
	function unzoom(dont_update_text) {
		unzoombtn.classList.add("hide");
		var el = document.getElementById("frames").children;
		for(var i = 0; i < el.length; i++) {
			el[i].classList.remove("parent");
			el[i].classList.remove("hide");
			zoom_reset(el[i]);
			if(!dont_update_text) update_text(el[i]);
		}
		search();
	}
	function clearzoom() {
		unzoom();

		// remove zoom state
		var params = get_params();
		if (params.x) delete params.x;
		if (params.y) delete params.y;
		history.replaceState(null, null, parse_params(params));
	}

	// search
	function toggle_ignorecase() {
		ignorecase = !ignorecase;
		if (ignorecase) {
			ignorecaseBtn.classList.add("show");
		} else {
			ignorecaseBtn.classList.remove("show");
		}
		reset_search();
		search();
	}
	function reset_search() {
		var el = document.querySelectorAll("#frames rect");
		for (var i = 0; i < el.length; i++) {
			orig_load(el[i], "fill")
		}
		var params = get_params();
		delete params.s;
		history.replaceState(null, null, parse_params(params));
	}
	function search_prompt() {
		if (!searching) {
			var term = prompt("Enter a search term (regexp " +
			    "allowed, eg: ^ext4_)"
			    + (ignorecase ? ", ignoring case" : "")
			    + "\nPress Ctrl-i to toggle case sensitivity", "");
			if (term != null) search(term);
		} else {
			reset_search();
			searching = 0;
			currentSearchTerm = null;
			searchbtn.classList.remove("show");
			searchbtn.firstChild.nodeValue = "Search"
			matchedtxt.classList.add("hide");
			matchedtxt.firstChild.nodeValue = ""
		}
	}
	function search(term) {
		if (term) currentSearchTerm = term;

		var re = new RegExp(currentSearchTerm, ignorecase ? 'i' : '');
		var el = document.getElementById("frames").children;
		var matches = new Object();
		var maxwidth = 0;
		for (var i = 0; i < el.length; i++) {
			var e = el[i];
			var func = g_to_func(e);
			var rect = find_child(e, "rect");
			if (func == null || rect == null)
				continue;

			// Save max width. Only works as we have a root frame
			var w = parseFloat(rect.attributes.width.value);
			if (w > maxwidth)
				maxwidth = w;

			if (func.match(re)) {
				// highlight
				var x = parseFloat(rect.attributes.x.value);
				orig_save(rect, "fill");
				rect.attributes.fill.value = "rgb(230,0,230)";

				// remember matches
				if (matches[x] == undefined) {
					matches[x] = w;
				} else {
					if (w > matches[x]) {
						// overwrite with parent
						matches[x] = w;
					}
				}
				searching = 1;
			}
		}
		if (!searching)
			return;
		var params = get_params();
		params.s = currentSearchTerm;
		history.replaceState(null, null, parse_params(params));

		searchbtn.classList.add("show");
		searchbtn.firstChild.nodeValue = "Reset Search";

		// calculate percent matched, excluding vertical overlap
		var count = 0;
		var lastx = -1;
		var lastw = 0;
		var keys = Array();
		for (k in matches) {
			if (matches.hasOwnProperty(k))
				keys.push(k);
		}
		// sort the matched frames by their x location
		// ascending, then width descending
		keys.sort(function(a, b){
			return a - b;
		});
		// Step through frames saving only the biggest bottom-up frames
		// thanks to the sort order. This relies on the tree property
		// where children are always smaller than their parents.
		var fudge = 0.0001;	// JavaScript floating point
		for (var k in keys) {
			var x = parseFloat(keys[k]);
			var w = matches[keys[k]];
			if (x >= lastx + lastw - fudge) {
				count += w;
				lastx = x;
				lastw = w;
			}
		}
		// display matched percent
		matchedtxt.classList.remove("hide");
		var pct = 100 * count / maxwidth;
		if (pct != 100) pct = pct.toFixed(1)
		matchedtxt.firstChild.nodeValue = "Matched: " + pct + "%";
	}
]]>
</script>
<rect x="0.0" y="0" width="1200.0" height="310.0" fill="url(#background)"  />
<text id="title" x="600.00" y="24" >Flame Graph</text>
<text id="details" x="10.00" y="293" > </text>
<text id="unzoom" x="10.00" y="24" class="hide">Reset Zoom</text>
<text id="search" x="1090.00" y="24" >Search</text>
<text id="ignorecase" x="1174.00" y="24" >ic</text>
<text id="matched" x="1090.00" y="293" > </text>
<g id="frames">
<g >
<title>all (40,131,312,730 samples, 100%)</title><rect x="10.0" y="261" width="1180.0" height="15.0" fill="rgb(213,39,9)" rx="2" ry="2" />
<text  x="13.00" y="271.5" ></text>
</g>
<g >
<title>arch_call_rest_init (4,969,696,920 samples, 12.38%)</title><rect x="612.6" y="197" width="146.1" height="15.0" fill="rgb(238,156,37)" rx="2" ry="2" />
<text  x="615.62" y="207.5" >arch_call_rest_init</text>
</g>
<g >
<title>exit_to_user_mode_prepare (10,101,010 samples, 0.03%)</title><rect x="20.4" y="117" width="0.3" height="15.0" fill="rgb(228,108,25)" rx="2" ry="2" />
<text  x="23.40" y="127.5" ></text>
</g>
<g >
<title>blk_mq_requeue_work (10,101,010 samples, 0.03%)</title><rect x="12.4" y="165" width="0.3" height="15.0" fill="rgb(217,58,13)" rx="2" ry="2" />
<text  x="15.38" y="175.5" ></text>
</g>
<g >
<title>do_writepages (10,101,010 samples, 0.03%)</title><rect x="12.7" y="85" width="0.3" height="15.0" fill="rgb(240,164,39)" rx="2" ry="2" />
<text  x="15.67" y="95.5" ></text>
</g>
<g >
<title>kthread (10,101,010 samples, 0.03%)</title><rect x="21.3" y="213" width="0.3" height="15.0" fill="rgb(239,159,38)" rx="2" ry="2" />
<text  x="24.29" y="223.5" ></text>
</g>
<g >
<title>[ld-linux-x86-64.so.2] (10,101,010 samples, 0.03%)</title><rect x="10.6" y="213" width="0.3" height="15.0" fill="rgb(243,178,42)" rx="2" ry="2" />
<text  x="13.59" y="223.5" ></text>
</g>
<g >
<title>do_idle (4,969,696,920 samples, 12.38%)</title><rect x="612.6" y="149" width="146.1" height="15.0" fill="rgb(212,34,8)" rx="2" ry="2" />
<text  x="615.62" y="159.5" >do_idle</text>
</g>
<g >
<title>call_rcu (10,101,010 samples, 0.03%)</title><rect x="20.4" y="85" width="0.3" height="15.0" fill="rgb(206,7,1)" rx="2" ry="2" />
<text  x="23.40" y="95.5" ></text>
</g>
<g >
<title>schedule (10,101,010 samples, 0.03%)</title><rect x="448.7" y="165" width="0.3" height="15.0" fill="rgb(254,229,54)" rx="2" ry="2" />
<text  x="451.68" y="175.5" ></text>
</g>
<g >
<title>__softirqentry_text_start (10,101,010 samples, 0.03%)</title><rect x="19.8" y="133" width="0.3" height="15.0" fill="rgb(234,135,32)" rx="2" ry="2" />
<text  x="22.80" y="143.5" ></text>
</g>
<g >
<title>[libc.so.6] (10,101,010 samples, 0.03%)</title><rect x="13.0" y="229" width="0.3" height="15.0" fill="rgb(223,84,20)" rx="2" ry="2" />
<text  x="15.97" y="239.5" ></text>
</g>
<g >
<title>schedule (10,101,010 samples, 0.03%)</title><rect x="21.0" y="133" width="0.3" height="15.0" fill="rgb(254,229,54)" rx="2" ry="2" />
<text  x="23.99" y="143.5" ></text>
</g>
<g >
<title>containerd (10,101,010 samples, 0.03%)</title><rect x="10.3" y="245" width="0.3" height="15.0" fill="rgb(246,191,45)" rx="2" ry="2" />
<text  x="13.30" y="255.5" ></text>
</g>
<g >
<title>ret_from_fork (10,101,010 samples, 0.03%)</title><rect x="12.4" y="229" width="0.3" height="15.0" fill="rgb(227,105,25)" rx="2" ry="2" />
<text  x="15.38" y="239.5" ></text>
</g>
<g >
<title>[perf] (10,101,010 samples, 0.03%)</title><rect x="13.0" y="197" width="0.3" height="15.0" fill="rgb(253,223,53)" rx="2" ry="2" />
<text  x="15.97" y="207.5" ></text>
</g>
<g >
<title>[containerd] (10,101,010 samples, 0.03%)</title><rect x="10.3" y="197" width="0.3" height="15.0" fill="rgb(208,14,3)" rx="2" ry="2" />
<text  x="13.30" y="207.5" ></text>
</g>
<g >
<title>stress (20,080,807,880 samples, 50.04%)</title><rect x="22.2" y="245" width="590.4" height="15.0" fill="rgb(246,191,45)" rx="2" ry="2" />
<text  x="25.18" y="255.5" >stress</text>
</g>
<g >
<title>entry_SYSCALL_64_after_hwframe (20,202,020 samples, 0.05%)</title><rect x="20.1" y="165" width="0.6" height="15.0" fill="rgb(218,63,15)" rx="2" ry="2" />
<text  x="23.10" y="175.5" ></text>
</g>
<g >
<title>amd_e400_idle (14,585,858,440 samples, 36.35%)</title><rect x="758.7" y="149" width="428.9" height="15.0" fill="rgb(226,99,23)" rx="2" ry="2" />
<text  x="761.75" y="159.5" >amd_e400_idle</text>
</g>
<g >
<title>process_one_work (10,101,010 samples, 0.03%)</title><rect x="12.7" y="181" width="0.3" height="15.0" fill="rgb(237,151,36)" rx="2" ry="2" />
<text  x="15.67" y="191.5" ></text>
</g>
<g >
<title>[dhcpcd] (10,101,010 samples, 0.03%)</title><rect x="11.8" y="213" width="0.3" height="15.0" fill="rgb(208,16,3)" rx="2" ry="2" />
<text  x="14.78" y="223.5" ></text>
</g>
<g >
<title>finish_task_switch.isra.0 (50,505,050 samples, 0.13%)</title><rect x="1188.5" y="149" width="1.5" height="15.0" fill="rgb(246,189,45)" rx="2" ry="2" />
<text  x="1191.51" y="159.5" ></text>
</g>
<g >
<title>do_syscall_64 (10,101,010 samples, 0.03%)</title><rect x="12.1" y="181" width="0.3" height="15.0" fill="rgb(209,20,4)" rx="2" ry="2" />
<text  x="15.08" y="191.5" ></text>
</g>
<g >
<title>__slab_free (10,101,010 samples, 0.03%)</title><rect x="19.8" y="101" width="0.3" height="15.0" fill="rgb(222,78,18)" rx="2" ry="2" />
<text  x="22.80" y="111.5" ></text>
</g>
<g >
<title>cpu_startup_entry (14,666,666,520 samples, 36.55%)</title><rect x="758.7" y="197" width="431.3" height="15.0" fill="rgb(252,220,52)" rx="2" ry="2" />
<text  x="761.75" y="207.5" >cpu_startup_entry</text>
</g>
<g >
<title>flush_smp_call_function_queue (10,101,010 samples, 0.03%)</title><rect x="1187.9" y="165" width="0.3" height="15.0" fill="rgb(233,129,30)" rx="2" ry="2" />
<text  x="1190.92" y="175.5" ></text>
</g>
<g >
<title>[containerd-shim-runc-v2] (10,101,010 samples, 0.03%)</title><rect x="10.0" y="165" width="0.3" height="15.0" fill="rgb(211,28,6)" rx="2" ry="2" />
<text  x="13.00" y="175.5" ></text>
</g>
<g >
<title>__schedule (10,101,010 samples, 0.03%)</title><rect x="21.0" y="117" width="0.3" height="15.0" fill="rgb(227,103,24)" rx="2" ry="2" />
<text  x="23.99" y="127.5" ></text>
</g>
<g >
<title>__softirqentry_text_start (10,101,010 samples, 0.03%)</title><rect x="449.0" y="165" width="0.3" height="15.0" fill="rgb(234,135,32)" rx="2" ry="2" />
<text  x="451.97" y="175.5" ></text>
</g>
<g >
<title>folio_clear_dirty_for_io (10,101,010 samples, 0.03%)</title><rect x="12.7" y="37" width="0.3" height="15.0" fill="rgb(237,150,36)" rx="2" ry="2" />
<text  x="15.67" y="47.5" ></text>
</g>
<g >
<title>amd_e400_idle (4,969,696,920 samples, 12.38%)</title><rect x="612.6" y="117" width="146.1" height="15.0" fill="rgb(226,99,23)" rx="2" ry="2" />
<text  x="615.62" y="127.5" >amd_e400_idle</text>
</g>
<g >
<title>syscall_exit_to_user_mode (10,101,010 samples, 0.03%)</title><rect x="20.4" y="133" width="0.3" height="15.0" fill="rgb(251,211,50)" rx="2" ry="2" />
<text  x="23.40" y="143.5" ></text>
</g>
<g >
<title>entry_SYSCALL_64_after_hwframe (10,101,010 samples, 0.03%)</title><rect x="21.0" y="213" width="0.3" height="15.0" fill="rgb(218,63,15)" rx="2" ry="2" />
<text  x="23.99" y="223.5" ></text>
</g>
<g >
<title>tick_nohz_idle_enter (10,101,010 samples, 0.03%)</title><rect x="1188.2" y="165" width="0.3" height="15.0" fill="rgb(250,211,50)" rx="2" ry="2" />
<text  x="1191.22" y="175.5" ></text>
</g>
<g >
<title>default_idle_call (4,969,696,920 samples, 12.38%)</title><rect x="612.6" y="133" width="146.1" height="15.0" fill="rgb(213,39,9)" rx="2" ry="2" />
<text  x="615.62" y="143.5" >default_idle_call</text>
</g>
<g >
<title>finish_task_switch.isra.0 (10,101,010 samples, 0.03%)</title><rect x="21.0" y="101" width="0.3" height="15.0" fill="rgb(246,189,45)" rx="2" ry="2" />
<text  x="23.99" y="111.5" ></text>
</g>
<g >
<title>[libc.so.6] (20,202,020 samples, 0.05%)</title><rect x="14.8" y="213" width="0.5" height="15.0" fill="rgb(223,84,20)" rx="2" ry="2" />
<text  x="17.75" y="223.5" ></text>
</g>
<g >
<title>[unknown] (10,101,010 samples, 0.03%)</title><rect x="21.9" y="229" width="0.3" height="15.0" fill="rgb(210,24,5)" rx="2" ry="2" />
<text  x="24.88" y="239.5" ></text>
</g>
<g >
<title>[unknown] (111,111,110 samples, 0.28%)</title><rect x="17.7" y="213" width="3.3" height="15.0" fill="rgb(210,24,5)" rx="2" ry="2" />
<text  x="20.72" y="223.5" ></text>
</g>
<g >
<title>[libc.so.6] (10,101,010 samples, 0.03%)</title><rect x="21.6" y="229" width="0.3" height="15.0" fill="rgb(223,84,20)" rx="2" ry="2" />
<text  x="24.58" y="239.5" ></text>
</g>
<g >
<title>do_user_addr_fault (10,101,010 samples, 0.03%)</title><rect x="11.8" y="165" width="0.3" height="15.0" fill="rgb(228,108,25)" rx="2" ry="2" />
<text  x="14.78" y="175.5" ></text>
</g>
<g >
<title>__x64_sys_clock_nanosleep (10,101,010 samples, 0.03%)</title><rect x="20.1" y="133" width="0.3" height="15.0" fill="rgb(248,202,48)" rx="2" ry="2" />
<text  x="23.10" y="143.5" ></text>
</g>
<g >
<title>[libc.so.6] (10,101,010 samples, 0.03%)</title><rect x="12.1" y="213" width="0.3" height="15.0" fill="rgb(223,84,20)" rx="2" ry="2" />
<text  x="15.08" y="223.5" ></text>
</g>
<g >
<title>swapper (19,636,363,440 samples, 48.93%)</title><rect x="612.6" y="245" width="577.4" height="15.0" fill="rgb(239,158,37)" rx="2" ry="2" />
<text  x="615.62" y="255.5" >swapper</text>
</g>
<g >
<title>[unknown] (30,303,030 samples, 0.08%)</title><rect x="20.1" y="197" width="0.9" height="15.0" fill="rgb(210,24,5)" rx="2" ry="2" />
<text  x="23.10" y="207.5" ></text>
</g>
<g >
<title>sysvec_apic_timer_interrupt (10,101,010 samples, 0.03%)</title><rect x="449.0" y="197" width="0.3" height="15.0" fill="rgb(220,69,16)" rx="2" ry="2" />
<text  x="451.97" y="207.5" ></text>
</g>
<g >
<title>[containerd-shim-runc-v2] (10,101,010 samples, 0.03%)</title><rect x="10.0" y="181" width="0.3" height="15.0" fill="rgb(211,28,6)" rx="2" ry="2" />
<text  x="13.00" y="191.5" ></text>
</g>
<g >
<title>writeback_sb_inodes (10,101,010 samples, 0.03%)</title><rect x="12.7" y="117" width="0.3" height="15.0" fill="rgb(237,148,35)" rx="2" ry="2" />
<text  x="15.67" y="127.5" ></text>
</g>
<g >
<title>blk_mq_sched_dispatch_requests (10,101,010 samples, 0.03%)</title><rect x="12.4" y="117" width="0.3" height="15.0" fill="rgb(209,22,5)" rx="2" ry="2" />
<text  x="15.38" y="127.5" ></text>
</g>
<g >
<title>cpu_startup_entry (4,969,696,920 samples, 12.38%)</title><rect x="612.6" y="165" width="146.1" height="15.0" fill="rgb(252,220,52)" rx="2" ry="2" />
<text  x="615.62" y="175.5" >cpu_startup_entry</text>
</g>
<g >
<title>dhcpcd (20,202,020 samples, 0.05%)</title><rect x="11.8" y="245" width="0.6" height="15.0" fill="rgb(247,193,46)" rx="2" ry="2" />
<text  x="14.78" y="255.5" ></text>
</g>
<g >
<title>hrtimer_nanosleep (10,101,010 samples, 0.03%)</title><rect x="20.1" y="101" width="0.3" height="15.0" fill="rgb(237,147,35)" rx="2" ry="2" />
<text  x="23.10" y="111.5" ></text>
</g>
<g >
<title>perf (10,101,010 samples, 0.03%)</title><rect x="13.0" y="245" width="0.3" height="15.0" fill="rgb(242,171,40)" rx="2" ry="2" />
<text  x="15.97" y="255.5" ></text>
</g>
<g >
<title>rcu_preempt (10,101,010 samples, 0.03%)</title><rect x="21.3" y="245" width="0.3" height="15.0" fill="rgb(226,97,23)" rx="2" ry="2" />
<text  x="24.29" y="255.5" ></text>
</g>
<g >
<title>[containerd] (10,101,010 samples, 0.03%)</title><rect x="10.3" y="229" width="0.3" height="15.0" fill="rgb(208,14,3)" rx="2" ry="2" />
<text  x="13.30" y="239.5" ></text>
</g>
<g >
<title>asm_sysvec_apic_timer_interrupt (10,101,010 samples, 0.03%)</title><rect x="19.8" y="181" width="0.3" height="15.0" fill="rgb(232,127,30)" rx="2" ry="2" />
<text  x="22.80" y="191.5" ></text>
</g>
<g >
<title>[libc.so.6] (20,202,020 samples, 0.05%)</title><rect x="20.1" y="181" width="0.6" height="15.0" fill="rgb(223,84,20)" rx="2" ry="2" />
<text  x="23.10" y="191.5" ></text>
</g>
<g >
<title>worker_thread (10,101,010 samples, 0.03%)</title><rect x="12.4" y="197" width="0.3" height="15.0" fill="rgb(214,45,10)" rx="2" ry="2" />
<text  x="15.38" y="207.5" ></text>
</g>
<g >
<title>__x64_sys_ppoll (10,101,010 samples, 0.03%)</title><rect x="12.1" y="165" width="0.3" height="15.0" fill="rgb(222,78,18)" rx="2" ry="2" />
<text  x="15.08" y="175.5" ></text>
</g>
<g >
<title>do_idle (14,616,161,470 samples, 36.42%)</title><rect x="758.7" y="181" width="429.8" height="15.0" fill="rgb(212,34,8)" rx="2" ry="2" />
<text  x="761.75" y="191.5" >do_idle</text>
</g>
<g >
<title>__blk_mq_run_hw_queue (10,101,010 samples, 0.03%)</title><rect x="12.4" y="133" width="0.3" height="15.0" fill="rgb(235,140,33)" rx="2" ry="2" />
<text  x="15.38" y="143.5" ></text>
</g>
<g >
<title>python (10,101,010 samples, 0.03%)</title><rect x="21.0" y="245" width="0.3" height="15.0" fill="rgb(209,21,5)" rx="2" ry="2" />
<text  x="23.99" y="255.5" ></text>
</g>
<g >
<title>[unknown] (212,121,210 samples, 0.53%)</title><rect x="14.8" y="229" width="6.2" height="15.0" fill="rgb(210,24,5)" rx="2" ry="2" />
<text  x="17.75" y="239.5" ></text>
</g>
<g >
<title>start_kernel (4,969,696,920 samples, 12.38%)</title><rect x="612.6" y="213" width="146.1" height="15.0" fill="rgb(254,227,54)" rx="2" ry="2" />
<text  x="615.62" y="223.5" >start_kernel</text>
</g>
<g >
<title>do_syscall_64 (10,101,010 samples, 0.03%)</title><rect x="21.0" y="197" width="0.3" height="15.0" fill="rgb(209,20,4)" rx="2" ry="2" />
<text  x="23.99" y="207.5" ></text>
</g>
<g >
<title>rebalance_domains (10,101,010 samples, 0.03%)</title><rect x="1187.3" y="69" width="0.3" height="15.0" fill="rgb(248,202,48)" rx="2" ry="2" />
<text  x="1190.33" y="79.5" ></text>
</g>
<g >
<title>update_blocked_averages (10,101,010 samples, 0.03%)</title><rect x="449.0" y="133" width="0.3" height="15.0" fill="rgb(240,163,38)" rx="2" ry="2" />
<text  x="451.97" y="143.5" ></text>
</g>
<g >
<title>_raw_spin_unlock_irqrestore (10,101,010 samples, 0.03%)</title><rect x="12.1" y="101" width="0.3" height="15.0" fill="rgb(228,106,25)" rx="2" ry="2" />
<text  x="15.08" y="111.5" ></text>
</g>
<g >
<title>[perf] (10,101,010 samples, 0.03%)</title><rect x="13.0" y="181" width="0.3" height="15.0" fill="rgb(253,223,53)" rx="2" ry="2" />
<text  x="15.97" y="191.5" ></text>
</g>
<g >
<title>[libc.so.6] (10,101,010 samples, 0.03%)</title><rect x="13.3" y="229" width="0.3" height="15.0" fill="rgb(223,84,20)" rx="2" ry="2" />
<text  x="16.27" y="239.5" ></text>
</g>
<g >
<title>wb_writeback (10,101,010 samples, 0.03%)</title><rect x="12.7" y="149" width="0.3" height="15.0" fill="rgb(222,80,19)" rx="2" ry="2" />
<text  x="15.67" y="159.5" ></text>
</g>
<g >
<title>asm_exc_page_fault (10,101,010 samples, 0.03%)</title><rect x="11.8" y="197" width="0.3" height="15.0" fill="rgb(225,93,22)" rx="2" ry="2" />
<text  x="14.78" y="207.5" ></text>
</g>
<g >
<title>[containerd] (10,101,010 samples, 0.03%)</title><rect x="10.3" y="181" width="0.3" height="15.0" fill="rgb(208,14,3)" rx="2" ry="2" />
<text  x="13.30" y="191.5" ></text>
</g>
<g >
<title>__x64_sys_poll (10,101,010 samples, 0.03%)</title><rect x="21.0" y="181" width="0.3" height="15.0" fill="rgb(245,186,44)" rx="2" ry="2" />
<text  x="23.99" y="191.5" ></text>
</g>
<g >
<title>do_nanosleep (10,101,010 samples, 0.03%)</title><rect x="20.1" y="85" width="0.3" height="15.0" fill="rgb(253,220,52)" rx="2" ry="2" />
<text  x="23.10" y="95.5" ></text>
</g>
<g >
<title>do_syscall_64 (10,101,010 samples, 0.03%)</title><rect x="15.0" y="181" width="0.3" height="15.0" fill="rgb(209,20,4)" rx="2" ry="2" />
<text  x="18.05" y="191.5" ></text>
</g>
<g >
<title>[perf] (10,101,010 samples, 0.03%)</title><rect x="13.0" y="149" width="0.3" height="15.0" fill="rgb(253,223,53)" rx="2" ry="2" />
<text  x="15.97" y="159.5" ></text>
</g>
<g >
<title>[perf] (10,101,010 samples, 0.03%)</title><rect x="13.0" y="213" width="0.3" height="15.0" fill="rgb(253,223,53)" rx="2" ry="2" />
<text  x="15.97" y="223.5" ></text>
</g>
<g >
<title>wp_page_copy (10,101,010 samples, 0.03%)</title><rect x="11.8" y="117" width="0.3" height="15.0" fill="rgb(214,42,10)" rx="2" ry="2" />
<text  x="14.78" y="127.5" ></text>
</g>
<g >
<title>[libpython3.11.so.1.0] (80,808,080 samples, 0.20%)</title><rect x="17.7" y="197" width="2.4" height="15.0" fill="rgb(224,88,21)" rx="2" ry="2" />
<text  x="20.72" y="207.5" ></text>
</g>
<g >
<title>schedule_hrtimeout_range_clock (10,101,010 samples, 0.03%)</title><rect x="21.0" y="149" width="0.3" height="15.0" fill="rgb(222,81,19)" rx="2" ry="2" />
<text  x="23.99" y="159.5" ></text>
</g>
<g >
<title>[unknown] (10,101,010 samples, 0.03%)</title><rect x="10.0" y="229" width="0.3" height="15.0" fill="rgb(210,24,5)" rx="2" ry="2" />
<text  x="13.00" y="239.5" ></text>
</g>
<g >
<title>exc_page_fault (10,101,010 samples, 0.03%)</title><rect x="11.8" y="181" width="0.3" height="15.0" fill="rgb(212,35,8)" rx="2" ry="2" />
<text  x="14.78" y="191.5" ></text>
</g>
<g >
<title>[unknown] (20,202,020 samples, 0.05%)</title><rect x="11.8" y="229" width="0.6" height="15.0" fill="rgb(210,24,5)" rx="2" ry="2" />
<text  x="14.78" y="239.5" ></text>
</g>
<g >
<title>unix_poll (10,101,010 samples, 0.03%)</title><rect x="12.1" y="117" width="0.3" height="15.0" fill="rgb(244,179,43)" rx="2" ry="2" />
<text  x="15.08" y="127.5" ></text>
</g>
<g >
<title>[libc.so.6] (10,101,010 samples, 0.03%)</title><rect x="21.0" y="229" width="0.3" height="15.0" fill="rgb(223,84,20)" rx="2" ry="2" />
<text  x="23.99" y="239.5" ></text>
</g>
<g >
<title>secondary_startup_64_no_verify (19,636,363,440 samples, 48.93%)</title><rect x="612.6" y="229" width="577.4" height="15.0" fill="rgb(239,157,37)" rx="2" ry="2" />
<text  x="615.62" y="239.5" >secondary_startup_64_no_verify</text>
</g>
<g >
<title>do_sys_poll (10,101,010 samples, 0.03%)</title><rect x="12.1" y="149" width="0.3" height="15.0" fill="rgb(219,68,16)" rx="2" ry="2" />
<text  x="15.08" y="159.5" ></text>
</g>
<g >
<title>[libc.so.6] (14,525,252,380 samples, 36.19%)</title><rect x="22.2" y="229" width="427.1" height="15.0" fill="rgb(223,84,20)" rx="2" ry="2" />
<text  x="25.18" y="239.5" >[libc.so.6]</text>
</g>
<g >
<title>entry_SYSCALL_64_after_hwframe (10,101,010 samples, 0.03%)</title><rect x="12.1" y="197" width="0.3" height="15.0" fill="rgb(218,63,15)" rx="2" ry="2" />
<text  x="15.08" y="207.5" ></text>
</g>
<g >
<title>syscall_exit_to_user_mode (10,101,010 samples, 0.03%)</title><rect x="15.0" y="165" width="0.3" height="15.0" fill="rgb(251,211,50)" rx="2" ry="2" />
<text  x="18.05" y="175.5" ></text>
</g>
<g >
<title>[containerd-shim-runc-v2] (10,101,010 samples, 0.03%)</title><rect x="10.0" y="197" width="0.3" height="15.0" fill="rgb(211,28,6)" rx="2" ry="2" />
<text  x="13.00" y="207.5" ></text>
</g>
<g >
<title>[libpython3.11.so.1.0] (40,404,040 samples, 0.10%)</title><rect x="13.6" y="229" width="1.2" height="15.0" fill="rgb(224,88,21)" rx="2" ry="2" />
<text  x="16.56" y="239.5" ></text>
</g>
<g >
<title>handle_mm_fault (10,101,010 samples, 0.03%)</title><rect x="11.8" y="149" width="0.3" height="15.0" fill="rgb(234,135,32)" rx="2" ry="2" />
<text  x="14.78" y="159.5" ></text>
</g>
<g >
<title>[libc.so.6] (10,101,010 samples, 0.03%)</title><rect x="10.9" y="229" width="0.3" height="15.0" fill="rgb(223,84,20)" rx="2" ry="2" />
<text  x="13.89" y="239.5" ></text>
</g>
<g >
<title>kthread (10,101,010 samples, 0.03%)</title><rect x="12.7" y="213" width="0.3" height="15.0" fill="rgb(239,159,38)" rx="2" ry="2" />
<text  x="15.67" y="223.5" ></text>
</g>
<g >
<title>rest_init (4,969,696,920 samples, 12.38%)</title><rect x="612.6" y="181" width="146.1" height="15.0" fill="rgb(252,217,51)" rx="2" ry="2" />
<text  x="615.62" y="191.5" >rest_init</text>
</g>
<g >
<title>[libpython3.11.so.1.0] (10,101,010 samples, 0.03%)</title><rect x="20.7" y="181" width="0.3" height="15.0" fill="rgb(224,88,21)" rx="2" ry="2" />
<text  x="23.69" y="191.5" ></text>
</g>
<g >
<title>schedule (10,101,010 samples, 0.03%)</title><rect x="20.1" y="69" width="0.3" height="15.0" fill="rgb(254,229,54)" rx="2" ry="2" />
<text  x="23.10" y="79.5" ></text>
</g>
<g >
<title>common_nsleep_timens (10,101,010 samples, 0.03%)</title><rect x="20.1" y="117" width="0.3" height="15.0" fill="rgb(226,98,23)" rx="2" ry="2" />
<text  x="23.10" y="127.5" ></text>
</g>
<g >
<title>containerd-shim (10,101,010 samples, 0.03%)</title><rect x="10.0" y="245" width="0.3" height="15.0" fill="rgb(208,17,4)" rx="2" ry="2" />
<text  x="13.00" y="255.5" ></text>
</g>
<g >
<title>kthread (10,101,010 samples, 0.03%)</title><rect x="12.4" y="213" width="0.3" height="15.0" fill="rgb(239,159,38)" rx="2" ry="2" />
<text  x="15.38" y="223.5" ></text>
</g>
<g >
<title>rcu_gp_slow (10,101,010 samples, 0.03%)</title><rect x="21.3" y="165" width="0.3" height="15.0" fill="rgb(239,157,37)" rx="2" ry="2" />
<text  x="24.29" y="175.5" ></text>
</g>
<g >
<title>blk_mq_run_hw_queues (10,101,010 samples, 0.03%)</title><rect x="12.4" y="149" width="0.3" height="15.0" fill="rgb(220,69,16)" rx="2" ry="2" />
<text  x="15.38" y="159.5" ></text>
</g>
<g >
<title>debug_smp_processor_id (10,101,010 samples, 0.03%)</title><rect x="1187.6" y="149" width="0.3" height="15.0" fill="rgb(216,54,12)" rx="2" ry="2" />
<text  x="1190.62" y="159.5" ></text>
</g>
<g >
<title>__writeback_inodes_wb (10,101,010 samples, 0.03%)</title><rect x="12.7" y="133" width="0.3" height="15.0" fill="rgb(234,133,32)" rx="2" ry="2" />
<text  x="15.67" y="143.5" ></text>
</g>
<g >
<title>__irq_exit_rcu (10,101,010 samples, 0.03%)</title><rect x="19.8" y="149" width="0.3" height="15.0" fill="rgb(227,101,24)" rx="2" ry="2" />
<text  x="22.80" y="159.5" ></text>
</g>
<g >
<title>entry_SYSCALL_64_after_hwframe (10,101,010 samples, 0.03%)</title><rect x="15.0" y="197" width="0.3" height="15.0" fill="rgb(218,63,15)" rx="2" ry="2" />
<text  x="18.05" y="207.5" ></text>
</g>
<g >
<title>debug_smp_processor_id (10,101,010 samples, 0.03%)</title><rect x="11.8" y="85" width="0.3" height="15.0" fill="rgb(216,54,12)" rx="2" ry="2" />
<text  x="14.78" y="95.5" ></text>
</g>
<g >
<title>[ld-linux-x86-64.so.2] (10,101,010 samples, 0.03%)</title><rect x="21.9" y="213" width="0.3" height="15.0" fill="rgb(243,178,42)" rx="2" ry="2" />
<text  x="24.88" y="223.5" ></text>
</g>
<g >
<title>__schedule (10,101,010 samples, 0.03%)</title><rect x="448.7" y="149" width="0.3" height="15.0" fill="rgb(227,103,24)" rx="2" ry="2" />
<text  x="451.68" y="159.5" ></text>
</g>
<g >
<title>process_one_work (10,101,010 samples, 0.03%)</title><rect x="12.4" y="181" width="0.3" height="15.0" fill="rgb(237,151,36)" rx="2" ry="2" />
<text  x="15.38" y="191.5" ></text>
</g>
<g >
<title>sysvec_apic_timer_interrupt (10,101,010 samples, 0.03%)</title><rect x="19.8" y="165" width="0.3" height="15.0" fill="rgb(220,69,16)" rx="2" ry="2" />
<text  x="22.80" y="175.5" ></text>
</g>
<g >
<title>__schedule (50,505,050 samples, 0.13%)</title><rect x="1188.5" y="165" width="1.5" height="15.0" fill="rgb(227,103,24)" rx="2" ry="2" />
<text  x="1191.51" y="175.5" ></text>
</g>
<g >
<title>do_syscall_64 (20,202,020 samples, 0.05%)</title><rect x="20.1" y="149" width="0.6" height="15.0" fill="rgb(209,20,4)" rx="2" ry="2" />
<text  x="23.10" y="159.5" ></text>
</g>
<g >
<title>default_idle_call (14,595,959,450 samples, 36.37%)</title><rect x="758.7" y="165" width="429.2" height="15.0" fill="rgb(213,39,9)" rx="2" ry="2" />
<text  x="761.75" y="175.5" >default_idle_call</text>
</g>
<g >
<title>finish_task_switch.isra.0 (10,101,010 samples, 0.03%)</title><rect x="448.7" y="133" width="0.3" height="15.0" fill="rgb(246,189,45)" rx="2" ry="2" />
<text  x="451.68" y="143.5" ></text>
</g>
<g >
<title>asm_sysvec_apic_timer_interrupt (10,101,010 samples, 0.03%)</title><rect x="1187.3" y="133" width="0.3" height="15.0" fill="rgb(232,127,30)" rx="2" ry="2" />
<text  x="1190.33" y="143.5" ></text>
</g>
<g >
<title>start_secondary (14,666,666,520 samples, 36.55%)</title><rect x="758.7" y="213" width="431.3" height="15.0" fill="rgb(242,170,40)" rx="2" ry="2" />
<text  x="761.75" y="223.5" >start_secondary</text>
</g>
<g >
<title>__schedule (10,101,010 samples, 0.03%)</title><rect x="20.1" y="53" width="0.3" height="15.0" fill="rgb(227,103,24)" rx="2" ry="2" />
<text  x="23.10" y="63.5" ></text>
</g>
<g >
<title>__writeback_single_inode (10,101,010 samples, 0.03%)</title><rect x="12.7" y="101" width="0.3" height="15.0" fill="rgb(231,122,29)" rx="2" ry="2" />
<text  x="15.67" y="111.5" ></text>
</g>
<g >
<title>[libpython3.11.so.1.0] (80,808,080 samples, 0.20%)</title><rect x="15.3" y="213" width="2.4" height="15.0" fill="rgb(224,88,21)" rx="2" ry="2" />
<text  x="18.35" y="223.5" ></text>
</g>
<g >
<title>asm_sysvec_apic_timer_interrupt (20,202,020 samples, 0.05%)</title><rect x="448.7" y="213" width="0.6" height="15.0" fill="rgb(232,127,30)" rx="2" ry="2" />
<text  x="451.68" y="223.5" ></text>
</g>
<g >
<title>task_work_run (10,101,010 samples, 0.03%)</title><rect x="20.4" y="101" width="0.3" height="15.0" fill="rgb(209,22,5)" rx="2" ry="2" />
<text  x="23.40" y="111.5" ></text>
</g>
<g >
<title>[perf] (10,101,010 samples, 0.03%)</title><rect x="13.0" y="165" width="0.3" height="15.0" fill="rgb(253,223,53)" rx="2" ry="2" />
<text  x="15.97" y="175.5" ></text>
</g>
<g >
<title>[stress] (5,555,555,500 samples, 13.84%)</title><rect x="449.3" y="229" width="163.3" height="15.0" fill="rgb(208,13,3)" rx="2" ry="2" />
<text  x="452.27" y="239.5" >[stress]</text>
</g>
<g >
<title>__softirqentry_text_start (10,101,010 samples, 0.03%)</title><rect x="1187.3" y="85" width="0.3" height="15.0" fill="rgb(234,135,32)" rx="2" ry="2" />
<text  x="1190.33" y="95.5" ></text>
</g>
<g >
<title>folio_add_lru (10,101,010 samples, 0.03%)</title><rect x="11.8" y="101" width="0.3" height="15.0" fill="rgb(208,17,4)" rx="2" ry="2" />
<text  x="14.78" y="111.5" ></text>
</g>
<g >
<title>finish_task_switch.isra.0 (10,101,010 samples, 0.03%)</title><rect x="20.1" y="37" width="0.3" height="15.0" fill="rgb(246,189,45)" rx="2" ry="2" />
<text  x="23.10" y="47.5" ></text>
</g>
<g >
<title>sleep (20,202,020 samples, 0.05%)</title><rect x="21.6" y="245" width="0.6" height="15.0" fill="rgb(244,182,43)" rx="2" ry="2" />
<text  x="24.58" y="255.5" ></text>
</g>
<g >
<title>sock_poll (10,101,010 samples, 0.03%)</title><rect x="12.1" y="133" width="0.3" height="15.0" fill="rgb(223,84,20)" rx="2" ry="2" />
<text  x="15.08" y="143.5" ></text>
</g>
<g >
<title>sysvec_apic_timer_interrupt (10,101,010 samples, 0.03%)</title><rect x="1187.3" y="117" width="0.3" height="15.0" fill="rgb(220,69,16)" rx="2" ry="2" />
<text  x="1190.33" y="127.5" ></text>
</g>
<g >
<title>schedule_idle (50,505,050 samples, 0.13%)</title><rect x="1188.5" y="181" width="1.5" height="15.0" fill="rgb(216,54,13)" rx="2" ry="2" />
<text  x="1191.51" y="191.5" ></text>
</g>
<g >
<title>rcu_gp_cleanup (10,101,010 samples, 0.03%)</title><rect x="21.3" y="181" width="0.3" height="15.0" fill="rgb(209,20,4)" rx="2" ry="2" />
<text  x="24.29" y="191.5" ></text>
</g>
<g >
<title>kworker/u8:2-wr (10,101,010 samples, 0.03%)</title><rect x="12.7" y="245" width="0.3" height="15.0" fill="rgb(205,1,0)" rx="2" ry="2" />
<text  x="15.67" y="255.5" ></text>
</g>
<g >
<title>__irq_exit_rcu (10,101,010 samples, 0.03%)</title><rect x="1187.3" y="101" width="0.3" height="15.0" fill="rgb(227,101,24)" rx="2" ry="2" />
<text  x="1190.33" y="111.5" ></text>
</g>
<g >
<title>dhcpcd-run-hook (40,404,040 samples, 0.10%)</title><rect x="10.6" y="245" width="1.2" height="15.0" fill="rgb(215,49,11)" rx="2" ry="2" />
<text  x="13.59" y="255.5" ></text>
</g>
<g >
<title>[containerd] (10,101,010 samples, 0.03%)</title><rect x="10.3" y="213" width="0.3" height="15.0" fill="rgb(208,14,3)" rx="2" ry="2" />
<text  x="13.30" y="223.5" ></text>
</g>
<g >
<title>__irq_exit_rcu (10,101,010 samples, 0.03%)</title><rect x="449.0" y="181" width="0.3" height="15.0" fill="rgb(227,101,24)" rx="2" ry="2" />
<text  x="451.97" y="191.5" ></text>
</g>
<g >
<title>generic_writepages (10,101,010 samples, 0.03%)</title><rect x="12.7" y="69" width="0.3" height="15.0" fill="rgb(218,63,15)" rx="2" ry="2" />
<text  x="15.67" y="79.5" ></text>
</g>
<g >
<title>wb_workfn (10,101,010 samples, 0.03%)</title><rect x="12.7" y="165" width="0.3" height="15.0" fill="rgb(215,46,11)" rx="2" ry="2" />
<text  x="15.67" y="175.5" ></text>
</g>
<g >
<title>ret_from_fork (10,101,010 samples, 0.03%)</title><rect x="12.7" y="229" width="0.3" height="15.0" fill="rgb(227,105,25)" rx="2" ry="2" />
<text  x="15.67" y="239.5" ></text>
</g>
<g >
<title>exit_to_user_mode_prepare (10,101,010 samples, 0.03%)</title><rect x="448.7" y="181" width="0.3" height="15.0" fill="rgb(228,108,25)" rx="2" ry="2" />
<text  x="451.68" y="191.5" ></text>
</g>
<g >
<title>write_cache_pages (10,101,010 samples, 0.03%)</title><rect x="12.7" y="53" width="0.3" height="15.0" fill="rgb(210,23,5)" rx="2" ry="2" />
<text  x="15.67" y="63.5" ></text>
</g>
<g >
<title>worker_thread (10,101,010 samples, 0.03%)</title><rect x="12.7" y="197" width="0.3" height="15.0" fill="rgb(214,45,10)" rx="2" ry="2" />
<text  x="15.67" y="207.5" ></text>
</g>
<g >
<title>[containerd-shim-runc-v2] (10,101,010 samples, 0.03%)</title><rect x="10.0" y="213" width="0.3" height="15.0" fill="rgb(211,28,6)" rx="2" ry="2" />
<text  x="13.00" y="223.5" ></text>
</g>
<g >
<title>__handle_mm_fault (10,101,010 samples, 0.03%)</title><rect x="11.8" y="133" width="0.3" height="15.0" fill="rgb(207,9,2)" rx="2" ry="2" />
<text  x="14.78" y="143.5" ></text>
</g>
<g >
<title>[containerd] (10,101,010 samples, 0.03%)</title><rect x="10.3" y="165" width="0.3" height="15.0" fill="rgb(208,14,3)" rx="2" ry="2" />
<text  x="13.30" y="175.5" ></text>
</g>
<g >
<title>run_rebalance_domains (10,101,010 samples, 0.03%)</title><rect x="449.0" y="149" width="0.3" height="15.0" fill="rgb(232,126,30)" rx="2" ry="2" />
<text  x="451.97" y="159.5" ></text>
</g>
<g >
<title>kworker/1:1H-kb (10,101,010 samples, 0.03%)</title><rect x="12.4" y="245" width="0.3" height="15.0" fill="rgb(228,108,25)" rx="2" ry="2" />
<text  x="15.38" y="255.5" ></text>
</g>
<g >
<title>irqentry_exit_to_user_mode (10,101,010 samples, 0.03%)</title><rect x="448.7" y="197" width="0.3" height="15.0" fill="rgb(254,229,54)" rx="2" ry="2" />
<text  x="451.68" y="207.5" ></text>
</g>
<g >
<title>do_sys_poll (10,101,010 samples, 0.03%)</title><rect x="21.0" y="165" width="0.3" height="15.0" fill="rgb(219,68,16)" rx="2" ry="2" />
<text  x="23.99" y="175.5" ></text>
</g>
<g >
<title>[ld-linux-x86-64.so.2] (10,101,010 samples, 0.03%)</title><rect x="10.6" y="229" width="0.3" height="15.0" fill="rgb(243,178,42)" rx="2" ry="2" />
<text  x="13.59" y="239.5" ></text>
</g>
<g >
<title>python3 (262,626,260 samples, 0.65%)</title><rect x="13.3" y="245" width="7.7" height="15.0" fill="rgb(230,115,27)" rx="2" ry="2" />
<text  x="16.27" y="255.5" ></text>
</g>
<g >
<title>[unknown] (20,202,020 samples, 0.05%)</title><rect x="11.2" y="229" width="0.6" height="15.0" fill="rgb(210,24,5)" rx="2" ry="2" />
<text  x="14.19" y="239.5" ></text>
</g>
<g >
<title>rcu_core (10,101,010 samples, 0.03%)</title><rect x="19.8" y="117" width="0.3" height="15.0" fill="rgb(222,81,19)" rx="2" ry="2" />
<text  x="22.80" y="127.5" ></text>
</g>
<g >
<title>rcu_gp_kthread (10,101,010 samples, 0.03%)</title><rect x="21.3" y="197" width="0.3" height="15.0" fill="rgb(241,168,40)" rx="2" ry="2" />
<text  x="24.29" y="207.5" ></text>
</g>
<g >
<title>exit_to_user_mode_prepare (10,101,010 samples, 0.03%)</title><rect x="15.0" y="149" width="0.3" height="15.0" fill="rgb(228,108,25)" rx="2" ry="2" />
<text  x="18.05" y="159.5" ></text>
</g>
<g >
<title>[libbusybox.so.1.36.1] (20,202,020 samples, 0.05%)</title><rect x="11.2" y="213" width="0.6" height="15.0" fill="rgb(217,56,13)" rx="2" ry="2" />
<text  x="14.19" y="223.5" ></text>
</g>
<g >
<title>ret_from_fork (10,101,010 samples, 0.03%)</title><rect x="21.3" y="229" width="0.3" height="15.0" fill="rgb(227,105,25)" rx="2" ry="2" />
<text  x="24.29" y="239.5" ></text>
</g>
</g>
</svg>
